<?xml version="1.0" encoding="UTF-8"?>
<svg id="Layer_1" data-name="Layer 1" xmlns="http://www.w3.org/2000/svg" viewBox="0 0 232.2 231.78">
  <defs>
    <style>
      .cls-1 {
        fill: #faf9f6;
      }

      .cls-2 {
        fill: none;
        stroke: #000;
        stroke-width: .5px;
      }

      .cls-3 {
        fill: #2c2c2c;
      }
    </style>
  </defs>
  <path class="cls-1" d="m232.2,115.89c0,64-51.98,115.89-116.1,115.89S0,179.89,0,115.89,51.98,0,116.1,0s116.1,51.89,116.1,115.89"/>
  <path class="cls-2" d="m113.95.45C50.29,1.6-.38,54.14.77,117.8c1.15,63.66,53.69,114.33,117.35,113.18,63.66-1.15,114.33-53.69,113.18-117.35C230.15,49.97,177.61-.7,113.95.45Z"/>
  <polyline class="cls-3" points="74.57 89.5 74.57 89.49 74.57 89.5"/>
  <path class="cls-3" d="m74.56,89.54s0-.03,0-.04c0,.01,0,.03,0,.04"/>
  <path class="cls-3" d="m86.43,167.01c-.08-.02-.16-.03-.24-.05.08.02.16.03.24.05"/>
  <path class="cls-3" d="m143.16,166.16c-3.25,1.01-6.72,1.05-10.02,1.85-5.12,1.14-10.37,1.54-15.61,1.67-7.16.33-14.31-.08-21.35-1.45-1.64-.23-3.27-.6-4.92-.78,1.39,1.04,3.04,1.72,4.67,2.3,4.41,1.43,9.12,1.59,13.73,1.77,7.31.05,14.66-.07,21.92-1.07,4.01-.67,8.99-.62,11.59-4.28"/>
  <path class="cls-3" d="m132.59,78.98c-.01,1.87-.35,3.87-1.85,5.14-.17.2-.39.27-.64.33-1.52.46-2.95,1.14-4.38,1.81-1.38.64-2.74,1.34-4.03,2.14-1.24.71-2.52,1.56-3.99,1.59-.21-.29-.45-.56-.71-.8-.21,1.42,0,2.87-.25,4.28-.18.63-2.02.41-2.63.6-.97-.37-.66-.76-.5-1.57.11-.51.2-1.02.26-1.54.03-.55.11-1.06.68-1.28.74-.35,1.57-.52,2.38-.63-1.43-1.54-4.94-1.3-5.25,1.1-.08,1.12.07,2.26.44,3.31.17.61.77.98,1.39.92,1.32.75,3.03,1.99,4.53,1.03,1.47-1.33.76-3.73-.18-5.18,3.96,2.08,9.82-3.38,14.02-4.06,2.31-.54,4.72-.12,6.88.78,2.16.82,4.23,1.9,6.03,3.36-1.4-3.68-5.25-5.87-9-6.36.79-.67,1.92-.6,2.88-.84.53-.12,1.05-.31,1.56-.5,1.7-.68,3.47-1.71,5.35-1.06,1.98,3.9,2.22,8.61.43,12.63-.71.19-1.46.46-1.86,1.13.26-.76.95-1.28,1.2-2.06.18-.47.3-1.03.09-1.51-.02-.12-.46-.63-.38-.38,0,0,0,0,0,0,0,0,0,0,0,0,0,0,0,0,0,0,.13,1.1-1.26,1.65-2.03,2.14-2.89,1.32-6.54-.19-9.59-.32,3.35-.96,6.67-3.58,10.28-2.37.11.03.23.08.34.11-1.95-2.38-5.4-1.94-7.94-.88-2.34,1.03-4.8,1.85-7.37,2-3.22.17-6.56-.06-9.54-1.35,2.84,4.82,9.34,4.01,13.91,2.6,2.66,1.61,5.61,3.82,8.89,2.95-3.77,2.68-8.22,5.81-13.06,4.32-5.81-1.9-5.86-5.67-9.63-8.59.97,1.92,1.14,4.15,2.26,6.01,1.09,1.8,2.9,3.04,4.73,3.99,6.3,3.24,14.78-.1,17.76-6.42.47-.14.98-.09,1.44-.26-.45.84-.96,1.64-1.51,2.41.99-.3,1.91-.84,2.67-1.54-.04.09-.21.33-.03.19.95-.61,2.03-.94,3.03-1.44,3.55-1.6,3.44-5,2.08-8.15.42.39.87.75,1.35,1.06-.28.03-.56.1-.82.19.4.27.82.52,1.27.71.72.28,1.54.29,2.26.02.43.04.88.04,1.3-.04-.67-.39-1.29-.86-1.9-1.33-1.15-.94-2.55-1.73-4.07-1.73-.88-1.46-2.05-2.73-3.45-3.69-1.49-3.96-5-7.27-9.33-7.54-1.42-.15-3.36-.32-4.24,1.04-.5-1.01-1.41-1.98-2.58-2.08,1.26,1.55,1.04,3.73,1.05,5.61m16.83,8.08c.71,1.54,1.52,3.39.77,5.05-.52.96-1.4,1.63-2.16,2.38,1.55-2.45,1.49-5.53.97-8.29.14.28.28.57.42.85m-15.71-4.14c1.46-2.08,1.5-4.99.51-7.27,1.32-.94,3.02.01,4.39.4,2.62.79,5.14,2.24,6.53,4.69-1.91-1.87-4.81-.67-6.73.57-1.16.65-2.8,1.14-3.14,2.6-.83-.08-1.67-.09-2.5,0,.35-.28.68-.61.94-.98"/>
  <path class="cls-3" d="m138.53,74.2c2.1-.35,4.24-.24,6.35-.18,2.26.06,4.54.27,6.7.99,2.89,1.05,5.13,3.35,8.01,4.44.64.24,1.3.46,1.98.53-.42-.25-.84-.5-1.24-.78-2.9-2.08-5.44-4.82-8.92-5.95-2.74-.91-5.67-1.7-8.57-1.27-1.7.26-3.43.92-4.56,2.26.08-.01.16-.03.25-.05"/>
  <path class="cls-3" d="m154.77,77.43c-2.39-.92-7.06-1.91-8.61.79,1.63-.57,3.38.1,5.01.34,2.69.51,5.44.69,8.15.96-1.47-.81-2.99-1.51-4.56-2.09"/>
  <path class="cls-3" d="m144.47,83.32c-1.68-.47-3.37.2-4.89.87.93.23,1.93.4,2.9.51,1.31.26,2.9-.27,4.01.64.09-1.1-1.09-1.79-2.01-2.03"/>
  <path class="cls-3" d="m145.36,89.13c-.14.13-.28.28-.39.44.43.02.86,0,1.27-.15.38-.15.71-.43.94-.76-.63-.12-1.35.01-1.82.47"/>
  <path class="cls-3" d="m97.46,105.81c4.7,3.26,11.2-.2,12.79-5.29.74-2.09.83-4.33.88-6.53-.95,1.13-1.64,2.48-2.28,3.81-.88,1.76-1.53,3.73-2.99,5.11-2.52,2.2-6.23,2.55-9.34,1.56-.3-.1-.6-.21-.9-.32.51.65,1.13,1.21,1.82,1.66"/>
  <path class="cls-3" d="m94.8,102.07c1.84,1.7,5.55.32,7.5-.69-.05.03-.1.05-.14.08,2.93-1.26,4.07-4.44,6.19-6.59.23-.2.47-.39.74-.54-.13-.02-.27-.03-.41-.02-1.12.04-2.15.64-3.02,1.3-1.1.85-2.03,1.9-3.04,2.84-.74.66-1.6,1.17-2.43,1.72-1.59.92-3.42,2.35-5.35,1.92-.01,0-.02,0-.04-.01"/>
  <path class="cls-3" d="m95.53,80.68c1.43,2.36,4.1,3.67,6.71,4.23-1.66-1.77-3.2-3.67-4.69-5.59-.99-1.28-1.86-2.71-2.08-4.34-1.25,1.65-.96,4,.06,5.7"/>
  <path class="cls-3" d="m76.38,85.21c.51-1.54,2.22-2.21,3.57-2.84,1.58-.73,3.34-.81,5.04-.64,1.77.15,3.6.29,5.27.93.64.27,1.25.66,1.61,1.27.11-.96-.47-1.86-1.14-2.49-2.54-2.38-8.14-2.87-11.14-1.18,1.55-2.46,5.83-4.93,8.47-6.16,3.57-1.5,7.52-1.15,11.29-.95.75.05,1.5.11,2.24.18-.46-.44-.98-.84-1.52-1.18-2.98-1.88-6.71-1.84-9.99-.84-4.02,1.3-10.57,4.55-11.02,9.28-1.44,1.01-3.18,2.7-2.7,4.63"/>
  <path class="cls-3" d="m79.47,85.39c-.86.06-1.79.1-2.58-.32.65,1.37,2.31,1.82,3.68,2.12,4.18,1.09,8.31-.5,12.32-1.55-3.57-1.03-7.36-.68-11.02-.46.15-1.09-.18-2.29.39-3.28-1.6.07-1.92,2.21-1.14,3.33-.55.05-1.1.12-1.66.16"/>
  <polyline class="cls-3" points="74.57 89.5 74.57 89.49 74.57 89.5"/>
  <path class="cls-3" d="m74.73,90.27c.05-.57.63-.82,1.1-.99-.22.1-1.38,1.38-.66,1.01,1.06-.35,2.18-.18,3.27-.17.92,0,1.84-.01,2.76-.07-.81-1.08-2.24-1.62-3.56-1.48.74-.36,1.45-.81,2.09-1.33-.86-.3-1.83-.24-2.7.02-1.06.26-3.09,1.78-2.3,3.01"/>
  <path class="cls-3" d="m74.56,89.54s0-.03,0-.04c0,.01,0,.03,0,.04"/>
  <path class="cls-3" d="m116.85,87.41h0s0,0,0,0Z"/>
  <path class="cls-3" d="m130.27,69.95c-.37-.45-.93-.81-1.51-.62.41.14.66.54.74.95.24,2.31-.02,4.81-1.26,6.83-1.12,1.75-2.86,2.92-4.41,4.23,3.07-4.31,1.13-8.72,3.24-11.23-2.53.61-5.16,1.18-7.31,2.78-3.03,2.24-4.48,5.51-3.72,9.26-1.01-.65-2.27-.76-3.4-.41-.38-2.12-1.98-3.72-3.71-4.86-1.86-1.27-4.09-1.87-6.31-2.1-.79-.09-1.59-.13-2.38-.14-.18,0-.32.18-.26.36-1.33-1.17-3.57-1.87-4.96-.44,2.2-.61,3.61,1.6,4.63,3.2,1.09,1.7,2.1,3.45,3.09,5.21.98,1.79,2.1,3.58,3.76,4.79-1.56-.39-3.21-.4-4.79-.13-2.35-.49-5.36-.86-6.27-3.48-.54-1.38-.98-2.8-1.19-4.27-.07-.57-.1-1.16,0-1.73-.76.63-1.2,1.6-1.39,2.55-.72,4.12,1.02,8.14,5.74,7.71-5.06,1.67-8.65,6.24-7.03,11.7-.93-1.2-1.32-2.78-1.04-4.28.51,0,.46.02.05-.23.13-.52.38-1.01.74-1.4-.64-.07-1.28.22-1.75.66-1.47-1.22-2.56-2.84-4.08-4-1.34-1.09-2.97-1.72-4.37-2.73-.09-.07-.18-.14-.27-.21.04.5.21.99.42,1.44.76,1.51,2.02,2.69,3.24,3.82-1.71,1.12-4.1.41-5.99.17-3.23-.56-6.5-1.25-9.46-2.69-.53-.27-1.03-.59-1.55-.88.58.97,1.43,1.74,2.31,2.43.68,1.65,1.69,3.15,2.88,4.46-.93-.31-2.01-.39-2.86.17-.6.38-1.04,1.02-1.14,1.73.03-.01.07-.03.11-.04-.75,1.49-.88,3.2-1,4.84-.33,3.29-.31,6.77.99,9.84-.69,1.53.32,3.24,1.38,4.33-.38,2.21-.82,4.43-.85,6.69-.01,1.21.13,2.42.18,3.63.22,4.91.13,9.83.15,14.75-.03,2.67-.03,5.36.51,7.99.16.8.34,1.59.58,2.36-.1.89-.04,1.79.19,2.65.55,2.08,1.94,3.87,3.72,5.04,1.04.7,2.22,1.22,3.44,1.52-.01-.03-.04-.05-.05-.08.54.29.07-.1.03-.38-.27-1.03.02-2.11.07-3.15.06-1.29-.02-2.58-.12-3.87-1.8-13.36-1.49-26.82-.6-40.23.11-3.07-.04-8.59,1.98-10.93.33-.37.72-.7,1.15-.94-.47-.03-.95.01-1.41.15-5.06,1.99-3.75,8.93-3.75,13.27,0,1.24,0,2.49,0,3.73-1.12-1.33-2.29-2.63-3.61-3.75-.98-.86-2.27-1.53-2.82-2.78.77-2.94,1.12-6.06.96-9.11-.17-1.91-.74-3.76-.82-5.68,1.31-.47,2.71-.71,3.94-1.42,3.73,3.56,10.19,7.41,15.48,6.12.93-.23,1.83-.59,2.62-1.13-1.82-.14-3.61-.41-5.39-.8-2.17-.48-4.34-1.07-6.33-2.09-3.19-1.7-5.97-4.06-8.76-6.33,3.14,2.11,11.76,4.8,14.03.52,1.25,1.04,2.69,1.91,4.28,2.3-1.43,2.53.44,5.18,3.09,5.63.59,1.12,1.55,2.14,2.85,2.3-1.53-1.28-1.54-3.49-1.41-5.33.17.82.1.91.33.04,1.54-5.05,10.75-4.28,14.95-5.51.25-.01,2.14-.89,1.53-1-.23.04-.47.04-.7.03-2.06-.22-4.1-.69-6.19-.49-3.51.38-7.96,1.06-9.61,4.63.63-3.2,3.73-5.19,6.72-5.86,1.82-.39,3.7-.37,5.56-.32,1.56.07,3.12.19,4.65.51-.51-.63-1.16-1.16-1.87-1.57.53.1,1.07.16,1.61.23,0,0,0,0-.01,0,.05,0,.09.01.14.02-.91-.93-2.02-1.65-2.84-2.69-1.51-2.19-2.87-4.49-4.28-6.75-.86-1.43-1.71-2.91-2.94-4.07,1.45,1.05,2.98,1.97,4.51,2.89,1.37.83,2.85,1.55,3.87,2.83,1.67,2.16,1.55,5.17,3.19,7.36.1-1.92.79-3.78.68-5.71,1.08.46,2.26.57,3.42.46h0s.05-.01.08-.02c.3,1.27.69,2.52,1,3.79-.12.14-.26.26-.43.34.06.06.36-.01.5-.07.12.51.23,1.02.31,1.54.38-.67.6-1.43.72-2.19,2.37-2.08,5.43-2.99,8.01-4.75,2.4-1.71,4.85-4.03,5.11-7.15.11-1.67-.23-3.48-1.22-4.85m-54.89,49.85c-.02,11.59-.18,23.18.37,34.76.15,2.06.51,4.12,1.15,6.09-1.82-2.36-3.59-4.76-5.46-7.07.76-6.88.16-13.82.41-20.73.03-3.14.1-6.3-.22-9.43-.16-1.92-.39-3.88-1.26-5.63,1.38,1.2,3.21,1.84,5,2.01m43.11-34.54c.05-1.79-.2-3.57-.16-5.36.11-4.02,3.95-6.4,6.85-8.54-1.44,1.9-1.7,4.34-2.27,6.59-.96,2.71-2.87,4.93-4.42,7.31"/>
  <path class="cls-3" d="m89.49,119.32c.11-4.11-.36-8.8,2.27-12.26,1.07-1.16,2.71-1.54,3.83-2.63-1.47.21-3.03-.04-4.42.58-4.26,2.19-3.54,8.32-3.57,12.39.08,3.67.06,7.35.1,11.02-.03,8.21.28,16.41.32,24.62.03,4.58-.22,9.43,2.13,13.54-1.63-.35-2.99-1.41-4.51-2.02-2.3-1.05-4.74-1.98-7.29-2.04,1.93,2.08,4.42,3.78,7.24,4.3-.07-.01-.13-.03-.2-.04,1.6.32,3.36.81,4.92.09.26.5.18.23.24-.14.08-.06.16-.1.01-.09.3-2.68.28-5.4-.01-8.08-1.45-13.03-1.43-26.15-1.06-39.23"/>
  <path class="cls-3" d="m94.42,125.4c1.48.41,3,.67,4.53.82,9.4.99,18.9,1.4,28.32.49,3.91-.47,7.96-.66,11.6-2.28,1.18-.52,2.33-1.13,3.36-1.91-2.65-.04-5.3.31-7.9.81-9.69,2.23-19.76,2.25-29.62,1.35-4.24-.37-8.45-1.29-12.72-.99-.59.03-1.19.08-1.77.16,1.34.67,2.77,1.15,4.21,1.56"/>
  <path class="cls-3" d="m144.71,128.51c-.3-6.69,1.16-13.7-1.24-20.12-1.33-3.73-4.34-5.51-8.22-5.52-.79.02-1.59.14-2.33.43,1.4.35,2.69,1.04,3.91,1.8,2.92,1.88,4.42,3.4,5.15,6.89.81,3.91.44,7.94.4,11.9.04,7.23.04,14.46.05,21.69.02,3.12.01,6.24-.1,9.37-.19,3.72-.22,7.56,1.15,11.08,1.25-4.01,1.26-8.25,1.29-12.41.01-8.37-.16-16.74-.07-25.11"/>
  <path class="cls-3" d="m164.08,102.76c-.23-1.88-.72-3.72-1.37-5.5-.13-.22-.17-.87-.51-.8.58-3.8-1.89-7.51-5.93-7.37,2.39,1.74,3.57,4.02,3.3,7.04-.18,2.73-2.19,4.73-3.73,6.8,2.33-.78,4.72-2.08,5.8-4.4-1.08,4.3-.57,8.54.63,12.76-1.93,1.49-3.85,2.99-5.73,4.53-.95-8.35,0-18.04-11.22-17.93-.92,0-1.83.04-2.75.1.58.33,1.19.62,1.8.91,1.89.88,3.83,1.67,5.6,2.77.89.57,1.56,1.41,2.05,2.34,1.06,2.18,1.35,4.61,1.63,6.99,1.89,13.19,1.45,26.54,1.14,39.83,0-.11,0-.21.01-.31-.13,3.02.02,6.07.71,9.03.83-1.77,1.3-3.69,1.53-5.63.26-2.05.18-4.12.18-6.18-.14-10.54.18-21.1-.67-31.61,1.56.08,3.23-.34,4.42-1.4-.74,2.74-.96,5.59-.91,8.42-.14,8.33-.01,16.65.1,24.97.14,5.98,1.71,3.77-2.06,8.76-.74,1.09-1.49,2.19-2.13,3.35,2.16-.64,4.29-2.12,5.04-4.35.22-.66.32-1.41.18-2.1.24-1.09.38-2.19.49-3.29.29-9.69-.2-19.4.95-29.07.19-2.58-.08-5.2-.8-7.67.48-.69.76-1.52.79-2.36,1.21-2.67,1.79-5.69,1.46-8.61"/>
  <path class="cls-3" d="m155.55,159.94c-.76.81-1.92.99-2.9,1.42-1.03.46-2.02,1.02-3.01,1.57-1.41.84-2.79,1.73-4.24,2.48-.56.33-1.13.78-1.81.76-.38-.04.46.38.6.35.6.1,1.21-.04,1.8-.13,1.13-.15,2.24-.42,3.31-.83,1.72-.56,6.35-3.67,6.24-5.63"/>
  <path class="cls-3" d="m143.16,166.16c-3.25,1.01-6.72,1.05-10.02,1.85-5.12,1.14-10.37,1.54-15.61,1.67-7.16.33-14.31-.08-21.35-1.45-1.64-.23-3.27-.6-4.92-.78,1.39,1.04,3.04,1.72,4.67,2.3,4.41,1.43,9.12,1.59,13.73,1.77,7.31.05,14.66-.07,21.92-1.07,4.01-.67,8.99-.62,11.59-4.28"/>
  <path class="cls-3" d="m90.93,109.67c2.25.45,4.52.81,6.81.96,10.75.31,21.51,1.1,32.26.47,2.78-.25,5.52-1.07,7.97-2.43-1.47-.24-2.97-.38-4.46-.42-1.6-.04-3.2.03-4.78.21-4.12.44-8.26.62-12.4.65-4.48.03-8.95-.1-13.43-.22-4-.17-8.05-.18-11.96.76"/>
  <path d="m22.2,116.36c-.02.18-.03.35-.03.52,0,.17,0,.3,0,.38,0,.09,0,.18.01.26,0,.08.01.15.02.21h-.18c-.03-.3-.08-.53-.14-.71-.06-.17-.16-.3-.29-.37-.14-.07-.34-.1-.61-.1h-.63c-.17.01-.3.03-.39.06-.09.03-.15.09-.18.18-.03.09-.04.23-.04.42l.07,3.78c0,.18.02.32.05.41.03.09.09.15.18.18.09.03.22.04.39.03h.56c.32-.02.56-.06.73-.15.16-.09.28-.23.35-.43.07-.2.12-.46.15-.8h.17c-.01.13-.02.32-.01.55,0,.1,0,.24.02.41.01.18.03.37.05.56-.26,0-.55,0-.88,0s-.62,0-.87.01c-.11,0-.25,0-.43,0-.17,0-.36,0-.57.01-.2,0-.41.01-.62.02-.21,0-.41.01-.59.02v-.15c.17-.01.3-.04.39-.07.09-.03.15-.09.17-.19s.04-.23.04-.41l-.07-3.78c0-.19-.02-.33-.05-.41-.03-.09-.09-.15-.18-.18-.09-.03-.22-.05-.39-.05v-.15c.19,0,.38,0,.59,0,.21,0,.41,0,.62,0,.2,0,.39,0,.57,0,.17,0,.32,0,.43,0,.23,0,.5-.01.8-.02.3,0,.56-.02.8-.03m-1.26,2.63v.15s-1.39.03-1.39.03v-.15s1.39-.03,1.39-.03Zm.2-1.01c-.02.29-.02.51-.01.66,0,.15,0,.29.01.42,0,.13,0,.27.01.42,0,.15.03.37.05.66h-.17c-.02-.16-.05-.32-.08-.47-.03-.15-.1-.28-.19-.38-.1-.1-.26-.15-.48-.14v-.15c.17,0,.29-.04.38-.11.09-.07.15-.16.19-.27.04-.11.06-.22.08-.33.01-.11.03-.22.04-.31h.18Z"/>
  <path d="m25.42,116.22c.25,0,.45.02.58.08.13.06.25.12.35.19.06.03.11.06.15.08.04.02.08.02.11.02.05,0,.09-.03.11-.09.02-.06.04-.14.05-.25h.18c0,.08,0,.19-.01.31,0,.12,0,.28,0,.47,0,.2,0,.45,0,.77h-.18c-.02-.24-.08-.47-.17-.7-.1-.22-.23-.4-.41-.54-.18-.14-.41-.21-.69-.2-.27,0-.49.09-.66.26-.17.17-.26.38-.25.65,0,.23.07.42.19.57.12.15.28.29.48.41.2.12.41.25.64.39.27.16.51.32.71.47.21.16.37.33.5.52.12.19.19.42.19.7,0,.33-.06.6-.21.81-.14.21-.34.38-.58.49-.24.11-.51.17-.81.17-.27,0-.48-.02-.64-.08-.16-.06-.29-.12-.41-.18-.11-.07-.2-.1-.26-.1-.05,0-.09.03-.11.09-.02.06-.04.14-.05.25h-.18c0-.1.01-.23.01-.38,0-.14,0-.33,0-.57,0-.23,0-.53-.01-.89h.18c.03.3.09.59.19.85.1.26.25.47.45.63.2.16.46.23.78.23.17,0,.33-.04.48-.11.15-.07.27-.18.36-.33.09-.15.14-.35.13-.58,0-.21-.06-.39-.16-.54-.1-.15-.24-.3-.42-.43-.18-.13-.39-.27-.63-.4-.24-.14-.47-.29-.68-.44-.21-.15-.38-.32-.51-.52-.13-.2-.19-.44-.2-.72,0-.3.06-.55.19-.75.13-.2.31-.35.52-.45.22-.1.45-.15.7-.15"/>
  <path d="m32.86,116.17c-.02.19-.03.38-.03.56,0,.18,0,.32,0,.42,0,.12,0,.24.01.34,0,.11.01.2.02.28h-.17c-.04-.35-.1-.63-.16-.84-.06-.2-.17-.35-.33-.44-.15-.09-.39-.13-.71-.12h-.41s.08,4.34.08,4.34c0,.2.03.36.07.46.04.1.12.17.23.2.11.03.27.05.49.06v.15c-.13,0-.3-.01-.5,0s-.41,0-.62,0c-.23,0-.44,0-.64.01-.2,0-.36.02-.48.03v-.15c.21-.01.37-.04.48-.08.11-.04.19-.11.22-.21.04-.1.05-.26.05-.46l-.08-4.34h-.41c-.31.01-.55.06-.7.16-.15.09-.26.24-.32.45-.06.21-.1.49-.13.85h-.17c0-.08.01-.17.01-.28,0-.11,0-.22,0-.34,0-.1,0-.23-.02-.41-.01-.18-.03-.37-.05-.56.21,0,.45,0,.7,0,.25,0,.5,0,.76,0,.25,0,.49,0,.69-.01.21,0,.44,0,.69-.01.25,0,.5-.01.76-.02.25,0,.49-.02.69-.03"/>
  <path d="m34.89,120.66c.13,0,.25.04.34.14.1.1.15.21.15.34,0,.13-.04.25-.14.35-.09.1-.21.15-.34.15-.13,0-.25-.04-.35-.14-.1-.1-.15-.21-.15-.34,0-.13.04-.25.14-.35.1-.1.21-.15.34-.15"/>
  <path d="m200.93,117.77c.35,0,.63.07.84.23.21.16.32.4.32.71,0,.2-.04.4-.13.58-.09.18-.21.36-.36.52-.15.17-.31.33-.48.49-.17.16-.34.31-.49.47-.16.15-.3.31-.4.46l1.55-.03c.21,0,.34-.04.4-.1.06-.06.09-.16.11-.3h.13c0,.27.01.47.02.62,0,.15.02.28.03.39-.04,0-.13-.02-.25-.02-.12,0-.26,0-.42,0s-.31,0-.46,0l-1.78.03v-.13c.15-.17.33-.35.54-.55.21-.19.41-.41.61-.64.2-.23.36-.48.49-.75.13-.27.19-.56.19-.88,0-.29-.08-.5-.21-.62-.14-.13-.33-.19-.56-.18-.2,0-.39.07-.56.19-.17.12-.32.3-.45.54l-.12-.07c.07-.16.17-.32.3-.46.13-.15.29-.27.48-.36.19-.09.43-.14.7-.15"/>
  <path d="m205.81,117.68c.36,0,.68.07.96.23.28.16.5.39.66.68.16.3.25.65.26,1.06,0,.41-.07.77-.22,1.1-.16.33-.38.58-.66.77-.28.19-.62.29-1,.3-.35,0-.67-.07-.95-.23-.28-.16-.51-.39-.67-.69-.16-.3-.25-.65-.26-1.06,0-.4.07-.76.22-1.09.15-.32.38-.58.66-.77.29-.19.62-.29,1.01-.3m-.07.14c-.33,0-.59.18-.79.53-.21.35-.3.83-.29,1.45,0,.46.07.82.18,1.1.11.27.26.48.44.6.18.12.38.18.59.18.33,0,.6-.18.8-.54.2-.35.3-.84.29-1.46,0-.46-.07-.82-.18-1.1-.11-.28-.26-.47-.44-.59-.18-.12-.38-.18-.59-.18"/>
  <path d="m210.67,117.59c.35,0,.63.07.84.23.21.16.32.4.32.71,0,.2-.04.4-.13.58-.09.18-.21.36-.36.52-.15.17-.31.33-.48.49-.17.16-.34.31-.49.47-.16.15-.29.31-.4.46l1.55-.03c.21,0,.34-.04.39-.1.06-.06.09-.16.11-.3h.13c0,.27,0,.48.02.62,0,.14.02.28.03.39-.05,0-.13-.02-.25-.02-.12,0-.26,0-.42,0s-.31,0-.47,0l-1.78.03v-.13c.15-.17.33-.35.54-.55s.41-.41.61-.64c.2-.23.36-.48.49-.75.13-.27.19-.56.19-.88,0-.29-.08-.5-.21-.62-.14-.13-.32-.19-.56-.18-.2,0-.39.07-.56.19-.17.12-.32.3-.45.55l-.12-.07c.07-.16.17-.32.3-.47.13-.15.29-.27.48-.36.19-.09.43-.14.7-.15"/>
  <path d="m215.83,117.5l.03.2-2.09,3.07v-.12s2.32-.04,2.32-.04c.21,0,.34-.04.39-.09.05-.06.09-.16.11-.3h.13c0,.25,0,.44.02.57,0,.13.02.25.03.37-.04-.01-.09-.02-.17-.02-.08,0-.17,0-.28,0-.11,0-.22,0-.34,0-.12,0-.23,0-.35,0l-2.23.04v-.16s2.41-3.51,2.41-3.51Zm.12,0l.09,5.11h-.61s-.08-4.29-.08-4.29l.47-.82h.12Z"/>
  <path class="cls-2" d="m114.02,3.86C52.24,4.97,3.07,55.96,4.18,117.74c1.12,61.78,52.1,110.95,113.88,109.84,61.78-1.12,110.95-52.1,109.83-113.88C226.78,51.91,175.8,2.74,114.02,3.86Z"/>
  <path d="m32.72,97.3c-.89,1.01-1.92,1.7-3.1,2.06-1.17.36-2.38.38-3.62.07-1.32-.34-2.41-1-3.27-1.97-.86-.97-1.42-2.15-1.67-3.53-.26-1.38-.19-2.85.21-4.39.17-.67.4-1.32.67-1.96.28-.64.55-1.14.82-1.5.1-.14.16-.21.2-.23.04-.01.16,0,.36.04l2.96.48s.06.06.05.14c0,.08-.04.12-.1.12-.51.06-1.08.23-1.73.49-.64.26-1.25.67-1.82,1.22-.57.55-.97,1.25-1.19,2.11-.23.89-.2,1.76.1,2.62.3.86.84,1.62,1.63,2.28.79.66,1.79,1.14,2.98,1.45,1.3.34,2.53.39,3.69.17,1.15-.23,2.13-.7,2.92-1.43.79-.73,1.33-1.64,1.62-2.74.15-.57.2-1.02.15-1.36-.05-.34-.23-.62-.56-.85-.33-.23-.84-.44-1.55-.62-.72-.19-1.24-.27-1.54-.26-.31,0-.54.14-.71.38s-.34.71-.51,1.39c-.02.08-.09.11-.2.08-.04-.01-.08-.03-.11-.06-.03-.03-.04-.06-.03-.09.37-1.16.66-2.11.85-2.85.18-.71.35-1.45.51-2.22.01-.05.07-.07.17-.05.1.02.14.06.12.13-.08.25-.08.43,0,.57.08.13.27.25.58.36.31.11.86.27,1.66.47.62.16,1.08.25,1.35.27.28.02.45.04.52.06.08.02.13.05.16.08.02.04.03.11.03.21-.07,1.89-.3,3.55-.67,4.98-.41,1.58-1.06,2.88-1.95,3.89"/>
  <path d="m30.65,68.92c.76-.41,1.52-.42,2.28-.02.72.38,1.27.93,1.64,1.65.37.72.54,1.49.52,2.32-.02.83-.22,1.61-.6,2.33-.26.49-.45.84-.57,1.04l4.21,2.2c.39.21.69.33.91.35.21.03.4-.03.56-.18.16-.15.35-.43.56-.84.01-.02.06-.02.13.02.08.04.11.07.09.1-.22.42-.4.75-.54.98l-.78,1.44-.71,1.4c-.12.26-.29.61-.52,1.04-.02.04-.07.04-.15,0-.08-.04-.1-.08-.08-.12.21-.41.34-.72.37-.93.03-.22-.03-.41-.17-.58-.15-.17-.41-.35-.79-.55l-8.82-4.62c-.38-.2-.68-.31-.89-.34-.21-.03-.4.03-.57.19-.17.15-.36.43-.56.82-.01.03-.06.02-.13-.02-.08-.04-.11-.07-.1-.1l.55-1c.33-.57.59-1.03.77-1.37.23-.43.44-.89.65-1.38.07-.17.17-.39.29-.64s.26-.53.42-.84c.61-1.16,1.29-1.94,2.05-2.35m-.53,1.86c-.55.1-.98.43-1.28,1.01-.27.51-.36.92-.28,1.24.08.32.34.59.78.82l4.04,2.11c.21-.28.43-.63.66-1.06.38-.74.46-1.38.21-1.92-.24-.54-.82-1.05-1.74-1.53-1.04-.55-1.84-.77-2.39-.67m10.15,3.45c-1.47.23-3.45.41-5.93.54l.38-2.03c2.15-.21,3.86-.44,5.13-.67,1.27-.23,2.25-.52,2.95-.85.69-.33,1.17-.76,1.45-1.28.01-.03.06-.02.13.02.08.04.11.07.09.1l-1.78,3.39c-.15.29-.97.55-2.44.79"/>
  <path d="m46.94,66.6c-.07-.06-.09-.1-.06-.13.29-.35.47-.63.55-.84.08-.21.06-.4-.06-.59-.12-.19-.34-.42-.67-.69l-7.7-6.32c-.33-.27-.6-.45-.8-.52-.2-.07-.4-.05-.6.07-.2.12-.44.35-.72.69-.03.03-.07.02-.14-.03-.07-.05-.09-.1-.06-.13l5.78-7.05c.09-.11.19-.12.29-.04l2.24,1.78s.01.06-.03.13c-.04.07-.08.1-.12.08-.79-.35-1.51-.44-2.17-.27s-1.27.59-1.83,1.28l-.41.5c-.27.33-.4.64-.38.91.02.27.18.53.47.78l7.62,6.25c.32.26.61.4.86.4.25,0,.49-.12.71-.39l.45-.55c.71-.86,1.1-1.7,1.17-2.51.07-.81-.16-1.64-.7-2.5-.02-.02-.01-.05.02-.09.03-.03.06-.06.1-.07.04-.01.06-.02.08,0,.77.82,1.51,1.52,2.22,2.1.09.07.14.14.15.21.01.07-.02.15-.11.25l-6.03,7.35s-.07.02-.14-.03m.2-9.78c-.55.14-1.09.53-1.62,1.18l-1.84,2.24-.47-.38,1.86-2.26c.53-.64.82-1.23.88-1.75.06-.53-.11-.95-.51-1.28-.03-.03-.03-.07.03-.13.05-.06.09-.08.12-.05l1.48,1.24.81.64c.39.29.7.52.92.7.02.02,0,.06-.05.13-.05.07-.09.09-.11.07-.45-.37-.96-.49-1.5-.36"/>
  <path d="m57.21,54.87c-.06-.07-.07-.11-.03-.14.35-.29.58-.54.7-.73.11-.19.13-.39.05-.59-.08-.21-.26-.47-.53-.8l-6.4-7.63c-.28-.33-.51-.55-.69-.66-.18-.11-.38-.12-.6-.05-.21.08-.49.26-.83.55-.03.03-.08,0-.13-.06s-.07-.11-.03-.14l6.99-5.86c.11-.09.21-.09.29.01l1.87,2.16s0,.06-.05.12c-.05.06-.1.08-.14.06-.71-.49-1.4-.71-2.08-.67-.68.04-1.35.35-2.04.92l-.49.41c-.33.28-.51.55-.55.82-.03.27.07.56.32.85l6.33,7.55c.27.32.53.5.78.56.25.05.51-.03.77-.25l.54-.46c.86-.72,1.4-1.47,1.62-2.25.22-.78.15-1.65-.23-2.59-.02-.02,0-.05.04-.09.03-.03.07-.05.11-.05.04,0,.07,0,.08,0,.61.95,1.21,1.78,1.8,2.48.07.09.11.17.11.23,0,.07-.05.14-.15.22l-7.28,6.11s-.08,0-.13-.06m2-9.58c-.56.03-1.17.32-1.82.86l-2.23,1.87-.39-.46,2.24-1.88c.64-.53,1.04-1.05,1.19-1.56.16-.5.07-.95-.26-1.35-.03-.03-.01-.08.05-.12.06-.05.11-.06.13-.03l1.23,1.5.68.78c.33.36.6.64.78.86.02.02,0,.06-.07.12-.07.06-.11.07-.13.05-.38-.45-.85-.66-1.41-.63"/>
  <path d="m65.08,36.77s-.02.08-.09.11c-.07.03-.11.02-.13-.01-.22-.53-.52-1.21-.9-2.05-.37-.83-.67-1.45-.89-1.85-.03-.06-.02-.11.05-.15s.12-.02.15.04c.15.28.59.22,1.3-.17,1.1-.55,2.38-1.23,3.82-2.02.74-.41,1.52-.85,2.34-1.33l1.27-.72c.48-.26.81-.48,1-.67.18-.18.26-.39.22-.61-.02-.06.01-.11.08-.14s.12-.03.15.02c.17.4.46,1.02.87,1.88.41.85.75,1.53,1.03,2.04.02.04,0,.07-.06.11-.06.03-.11.04-.14,0-.72-.87-1.47-1.4-2.25-1.6-.78-.2-1.55-.1-2.3.32-.37.2-.56.41-.6.63-.03.22.07.55.31.99l4.75,8.7c.21.39.41.65.58.79.17.14.38.18.63.12.25-.05.61-.21,1.07-.46.04-.02.08,0,.12.08s.04.12,0,.14c-.45.25-.81.44-1.09.57l-1.58.84-1.52.85c-.26.16-.62.36-1.08.62-.04.02-.08,0-.12-.08-.04-.08-.04-.12,0-.14.45-.25.77-.46.96-.65.19-.18.27-.39.25-.61-.02-.23-.13-.53-.34-.91l-4.78-8.74c-.23-.43-.45-.69-.64-.78-.2-.09-.47-.04-.82.15-1.5.82-2.04,2.38-1.63,4.69"/>
  <path d="m88.86,35.51c.13.17.31.25.53.25.22,0,.55-.07.98-.22.04-.01.08.02.1.1.03.08.02.13-.02.14-.45.15-.8.27-1.07.34l-1.55.51-1.5.53c-.27.11-.63.24-1.09.39-.03.01-.05-.03-.08-.11-.03-.08-.03-.13,0-.14.43-.15.74-.29.92-.43.18-.14.28-.32.28-.54,0-.22-.06-.54-.2-.94l-3.21-9.43c-.14-.41-.28-.69-.42-.86-.14-.16-.32-.25-.55-.25-.23,0-.56.07-1,.21-.03,0-.05-.03-.08-.11-.03-.08-.03-.13,0-.14l1.11-.35c.63-.18,1.14-.34,1.52-.47.42-.14.94-.33,1.55-.57l1.03-.37s.07.02.1.1c.03.08.02.13-.02.14-.42.14-.72.29-.9.44-.18.15-.26.34-.27.56s.07.53.21.94l3.19,9.39c.14.42.28.71.41.88"/>
  <path d="m108.38,32.7c-.06.02-.11.02-.14,0l-12.22-10.43c-.58-.5-1.06-.82-1.45-.99-.39-.16-.76-.22-1.13-.16-.03,0-.05-.04-.06-.12-.01-.08,0-.13.02-.13l.9-.11c.19-.01.46-.04.81-.1l1.62-.25c.2-.04.44-.09.72-.13.11-.02.2,0,.27.05.06.05.18.16.35.32.29.29.49.49.61.59l9.11,7.88.68,3.49s-.02.08-.08.1m-12.67-11.66l.65-.05,1.45,10.07c.11.75.35,1.33.73,1.72.38.39.84.55,1.39.47.03,0,.05.04.06.12.01.09,0,.13-.03.13-.4.06-.7.1-.92.11l-1.15.14-1.32.21c-.24.05-.59.11-1.04.17-.04,0-.07-.03-.08-.12-.01-.09,0-.13.04-.14.62-.09,1.09-.38,1.38-.87.3-.49.39-1.11.29-1.87l-1.46-10.11Zm12.75,11.56l-.71-.55-1.48-10.26c-.11-.77-.35-1.35-.73-1.74-.38-.39-.84-.55-1.39-.47-.03,0-.05-.04-.06-.12-.01-.08,0-.13.02-.13l.92-.11c.46-.04.84-.08,1.16-.12.28-.04.68-.11,1.19-.22l.95-.16s.05.04.06.12c.01.08,0,.13-.02.13-.57.08-.98.37-1.24.86-.26.49-.34,1.12-.23,1.87l1.58,10.9Z"/>
  <path d="m118.94,31.64c-1.15-.71-2-1.61-2.55-2.71-.55-1.1-.78-2.28-.67-3.56.12-1.36.58-2.54,1.39-3.55.81-1.01,1.88-1.76,3.2-2.24,1.32-.48,2.78-.66,4.36-.52.68.06,1.37.17,2.04.34.68.17,1.21.35,1.61.56.15.07.24.12.26.16.02.04.03.16.02.36l.02,3s-.05.07-.12.08c-.08,0-.12-.02-.13-.08-.15-.49-.4-1.03-.77-1.62-.37-.59-.87-1.12-1.5-1.6-.64-.47-1.4-.75-2.28-.82-.92-.08-1.77.1-2.57.54s-1.46,1.1-1.97,1.99c-.52.89-.83,1.95-.93,3.18-.12,1.34.04,2.57.45,3.67.42,1.1,1.05,1.98,1.9,2.65.85.66,1.84,1.04,2.97,1.14.59.05,1.04.02,1.37-.08.32-.1.57-.33.75-.69.17-.36.29-.9.36-1.63.06-.74.07-1.26,0-1.56-.06-.3-.23-.51-.5-.64-.27-.12-.76-.21-1.46-.27-.09,0-.12-.07-.11-.18,0-.04.02-.08.04-.11.02-.03.05-.05.08-.05,1.21.18,2.19.3,2.95.36.73.06,1.49.11,2.28.13.06,0,.08.06.08.16,0,.1-.04.15-.11.14-.26-.04-.44,0-.56.09-.12.1-.2.31-.26.64-.06.33-.12.9-.19,1.71-.05.64-.07,1.1-.04,1.38.03.28.04.45.03.52,0,.09-.03.14-.06.17s-.1.05-.2.07c-1.88.24-3.55.3-5.02.17-1.63-.14-3.02-.57-4.16-1.28"/>
  <path d="m140.09,25.84c.14.46.35.89.64,1.29.29.4.68.9,1.19,1.5.56.65.99,1.19,1.3,1.65.31.45.54.96.69,1.52.15.56.13,1.15-.06,1.77-.21.71-.6,1.29-1.15,1.73-.55.44-1.21.72-1.99.82-.77.11-1.58.04-2.42-.22-.6-.18-1.22-.46-1.85-.83-.63-.38-1.03-.7-1.2-.98-.05-.08-.09-.14-.11-.2-.02-.06-.01-.14.02-.25l.92-3.3v-.02c.02-.05.07-.07.14-.06.07.01.1.05.1.11.16.96.32,1.75.47,2.36.15.61.41,1.19.76,1.73.35.54.83.9,1.44,1.08.55.16,1.05.15,1.49-.04.45-.19.77-.64.99-1.36.18-.6.2-1.17.07-1.71-.13-.53-.34-1.02-.63-1.45-.29-.43-.71-.97-1.25-1.61-.53-.62-.93-1.14-1.21-1.55-.27-.41-.48-.87-.61-1.37-.13-.5-.11-1.04.06-1.62.22-.73.61-1.28,1.18-1.66.57-.38,1.22-.59,1.95-.63.73-.04,1.46.04,2.19.26.48.14.96.33,1.42.57.47.24.83.46,1.1.68.11.09.17.18.2.25.02.07.02.16,0,.26l-.9,3.03s-.06.06-.13.06c-.07,0-.11-.02-.12-.07l-.05-.44c-.08-.97-.27-1.82-.55-2.57-.28-.74-.83-1.24-1.66-1.48-.55-.16-1.05-.14-1.49.07-.45.21-.76.62-.94,1.22-.15.49-.15.97-.01,1.43"/>
  <path d="m164.49,33.28c.04-.21,0-.42-.14-.61-.14-.19-.41-.43-.81-.7-.04-.02-.03-.07.02-.14.05-.07.09-.09.13-.07l.94.68c.53.4.95.71,1.28.94.45.31.97.66,1.58,1.05l.98.66s.01.06-.04.13c-.05.07-.09.1-.11.08-.42-.29-.76-.48-1.01-.54-.25-.07-.47-.04-.67.07-.2.12-.42.35-.66.71l-5.66,8.14c-.25.35-.39.64-.44.86s0,.43.17.63c.16.2.46.45.89.75.02.02.01.06-.04.13-.05.07-.09.1-.11.08-.41-.29-.74-.52-.98-.7l-1.52-1.08-1.34-.9c-.24-.15-.57-.37-.98-.66-.02-.02-.01-.06.04-.13.05-.07.09-.1.11-.08.41.29.73.46.96.54.23.07.44.05.63-.07.19-.12.41-.36.65-.71l5.68-8.18c.24-.35.39-.64.43-.85m-2.03,5.11l7.65,5.31-.34.49-7.65-5.31.34-.49Zm9.68.24c.05-.22,0-.43-.16-.64-.15-.21-.44-.46-.88-.77-.04-.02-.03-.07.02-.14.05-.07.09-.09.13-.07l.85.62c.57.43,1.1.81,1.57,1.14.32.22.78.52,1.38.91l1,.67s.03.07-.02.14c-.05.07-.09.09-.13.07-.4-.28-.72-.45-.96-.52-.24-.07-.45-.05-.63.08-.18.12-.39.36-.64.71l-5.68,8.18c-.24.35-.4.64-.45.85-.06.22,0,.42.14.61.15.19.43.43.84.71.04.02.03.07-.02.14-.05.07-.09.09-.13.07-.41-.29-.74-.52-.98-.7l-1.35-.96-1.6-1.09c-.22-.14-.51-.33-.88-.58-.04-.02-.03-.07.02-.14.05-.07.09-.09.13-.07.44.3.77.49,1.01.57.24.08.46.06.64-.05s.4-.36.66-.72l5.66-8.14c.24-.35.39-.64.44-.86"/>
  <path d="m174.99,56.94c-.22-1.19-.12-2.35.3-3.49.42-1.13,1.11-2.12,2.05-2.95,1.1-.98,2.3-1.54,3.58-1.68,1.28-.14,2.51.05,3.68.57,1.17.52,2.16,1.24,2.97,2.15.9,1.02,1.46,2.13,1.66,3.32.21,1.2.1,2.35-.32,3.45-.42,1.11-1.07,2.05-1.95,2.83-.98.86-2.1,1.4-3.37,1.61s-2.53.09-3.76-.36c-1.24-.45-2.3-1.17-3.2-2.18-.88-1-1.44-2.09-1.66-3.29m4.49,4.61c.77.17,1.61.09,2.52-.24.91-.33,1.83-.9,2.76-1.73.99-.87,1.74-1.81,2.25-2.8.51-.99.74-1.96.67-2.92-.06-.96-.43-1.82-1.11-2.58-.87-.98-1.9-1.4-3.1-1.28-1.2.12-2.46.77-3.78,1.94-1.04.92-1.83,1.9-2.37,2.95-.54,1.04-.8,2.05-.77,3.01.03.96.35,1.79.97,2.49.53.6,1.18.99,1.96,1.15"/>
  <path d="m197.41,65.86l.25.57-9.16,4.43c-.69.34-1.16.76-1.41,1.24-.24.49-.23.99.04,1.51.02.04,0,.08-.08.12-.08.04-.12.04-.15,0-.18-.34-.31-.61-.39-.81l-.52-1.06-.64-1.19c-.12-.2-.26-.47-.44-.81-.02-.04,0-.08.09-.12.08-.04.12-.04.14,0,.27.52.68.84,1.23.94.55.1,1.17-.01,1.85-.35l9.19-4.47Zm-4.46,19.4c-.08.04-.12.05-.13.02-.22-.43-.39-.78-.51-1.04l-.71-1.43-.76-1.43c-.14-.24-.31-.56-.53-.98-.02-.04,0-.08.08-.12s.12-.04.14,0c.21.41.4.69.57.86.17.16.36.23.57.2.21-.03.5-.15.87-.37l8.27-4.8,2.03.19-13.95.99c-.06,0-.12-.04-.15-.11-.04-.08-.04-.14,0-.19l7.48-10.63c.34-.5.55-.94.63-1.32.08-.39.02-.76-.16-1.11-.02-.04,0-.08.09-.12.08-.04.12-.04.14,0l.44.91c.08.18.19.42.33.7l.54,1c.07.11.15.25.24.43.09.17.09.32.02.47-.07.15-.26.45-.57.92l-5.84,8.41-2.21-.07,12.57-.79c.22-.01.38,0,.5.05.11.05.2.14.28.28.06.11.12.25.18.4.06.15.14.33.24.52l.6,1.12c.1.17.24.42.41.76.02.04,0,.08-.08.12-.08.04-.12.04-.15,0-.31-.6-.65-.97-1.03-1.11-.38-.14-.82-.07-1.31.22l-8.45,4.91c-.38.23-.65.42-.79.58-.14.16-.2.35-.17.57.03.22.15.52.35.92.01.03-.02.06-.09.1"/>
  <path d="m194.29,89.97c.08-.02.13,0,.14.03.11.44.23.76.35.94.12.18.29.29.51.3.22.02.54-.02.95-.13l9.65-2.44c.42-.1.71-.22.89-.34.18-.12.28-.29.3-.52s-.02-.56-.13-.99c-.01-.04.03-.07.11-.09.08-.02.13-.01.14.03l2.23,8.84c.03.14,0,.22-.14.26l-2.76.74s-.06-.02-.09-.1c-.03-.07-.03-.12,0-.15.75-.43,1.25-.95,1.51-1.58.25-.63.27-1.37.06-2.23l-.16-.62c-.11-.42-.27-.7-.5-.85-.23-.15-.53-.18-.91-.08l-9.55,2.41c-.4.1-.68.25-.84.46-.16.2-.19.47-.11.8l.17.69c.27,1.08.71,1.9,1.32,2.44.61.54,1.42.85,2.43.92.03,0,.05.02.06.07.01.04,0,.08,0,.12-.01.04-.03.06-.04.07-1.12.13-2.12.31-3.01.54-.11.03-.2.03-.26,0-.06-.03-.1-.11-.14-.23l-2.33-9.22s.03-.07.11-.1m7.75,5.97c.22-.52.22-1.19.01-2.01l-.71-2.82.58-.15.72,2.84c.2.81.5,1.39.88,1.75.39.36.83.48,1.33.35.04-.01.07.02.09.1.02.08,0,.12-.03.13l-1.88.45-1,.27c-.46.15-.84.26-1.12.33-.03,0-.05-.03-.07-.11-.02-.08-.02-.13.01-.14.57-.14.96-.47,1.18-1"/>
  <path d="m26.47,145.1c.05.14.11.31.19.53.08.22.16.43.24.64.12.3.23.58.35.85.11.27.19.46.24.57.31.76.36,1.4.16,1.92-.19.52-.57.88-1.11,1.1-.23.09-.48.15-.76.17-.28.02-.56-.02-.85-.12-.28-.1-.56-.29-.82-.55-.26-.27-.49-.65-.69-1.14l-.36-.91.19-.08.32.81c.18.45.4.75.67.92s.55.24.86.21c.31-.03.63-.1.95-.23.6-.24,1-.54,1.2-.89.2-.36.19-.82-.04-1.39-.12-.29-.24-.46-.39-.5-.14-.05-.38,0-.7.13l-4.68,1.87c-.23.09-.39.18-.48.27-.09.09-.13.22-.12.37.02.15.07.36.17.63l-.19.08c-.05-.17-.13-.38-.23-.63-.1-.25-.2-.51-.3-.77-.1-.24-.19-.47-.28-.69-.09-.21-.17-.38-.23-.51l.19-.08c.1.21.19.36.27.46.08.09.19.14.32.13.13,0,.31-.06.53-.15l4.68-1.87c.23-.09.4-.18.49-.26.1-.08.14-.19.14-.31,0-.13-.04-.3-.12-.52l.19-.08Z"/>
  <path d="m31.73,156.81c-.22.08-.44.17-.64.26-.2.09-.36.16-.46.21-.11.05-.21.11-.31.17s-.18.1-.24.14l-.1-.21c.34-.21.6-.41.77-.58.18-.17.27-.36.27-.56,0-.21-.07-.47-.23-.79l-.38-.75c-.1-.21-.2-.35-.28-.44-.09-.09-.19-.13-.32-.11-.12.02-.3.08-.52.19l-4.51,2.26c-.22.11-.37.21-.46.3-.09.09-.13.2-.11.32.02.12.08.29.19.49l.33.66c.19.38.39.65.59.79.2.14.44.2.72.17.28-.03.63-.12,1.05-.28l.11.21c-.17.06-.4.16-.67.3-.11.06-.28.14-.49.26-.21.12-.42.25-.64.39-.14-.32-.31-.67-.5-1.06-.19-.39-.36-.73-.51-1.04-.07-.13-.15-.3-.26-.51-.1-.21-.22-.43-.34-.67-.12-.24-.25-.48-.38-.73-.13-.25-.25-.48-.37-.7l.18-.09c.12.2.22.34.31.43.09.09.2.12.33.11.13-.02.3-.08.52-.19l4.51-2.26c.22-.11.38-.21.47-.3.09-.09.12-.2.11-.32-.01-.13-.07-.29-.17-.5l.18-.09c.11.23.22.47.34.72.12.25.24.5.36.74.12.24.23.47.33.68.1.21.19.38.26.51.14.28.3.59.48.95.18.35.35.67.5.94m-2.56-.34c-.36.15-.63.27-.81.36-.18.09-.35.18-.5.26-.15.08-.32.16-.49.26-.18.1-.43.24-.77.44l-.1-.21c.18-.12.36-.24.52-.37.17-.13.28-.27.34-.45.06-.17.03-.39-.11-.66l.18-.09c.1.2.22.33.35.4.13.07.28.09.43.08.15-.02.3-.05.45-.1.15-.05.28-.09.4-.13l.1.21Zm-1.33.34l-.18.09-.83-1.66.18-.09.83,1.66Z"/>
  <path d="m33.13,159.36c.07.12.16.29.27.49.12.2.23.39.35.58.17.27.33.53.49.77.16.24.27.42.33.52.29.47.46.9.52,1.29.06.39.02.73-.12,1.02s-.34.53-.62.7c-.17.11-.38.19-.62.24-.24.05-.5.04-.78-.02-.28-.06-.56-.21-.86-.43-.29-.23-.58-.56-.86-1.01l-.51-.83.17-.11.46.74c.25.41.51.68.77.82.26.14.53.18.79.12.26-.06.53-.16.8-.33.46-.28.74-.61.86-.98.12-.37.01-.82-.31-1.35-.16-.26-.32-.41-.47-.43-.15-.02-.37.06-.67.25l-4.3,2.64c-.21.13-.35.24-.44.34-.08.1-.11.21-.08.33.03.12.1.29.2.49l-.17.11c-.07-.14-.16-.31-.28-.51-.12-.2-.24-.4-.37-.6-.14-.23-.27-.43-.39-.63-.12-.2-.23-.35-.31-.46l.17-.11c.13.19.25.32.34.4.1.08.21.1.33.08.12-.03.29-.11.5-.24l4.29-2.64c.21-.13.36-.24.44-.34.08-.1.11-.21.08-.33-.02-.12-.09-.29-.21-.49l.17-.11Zm-2.23,3.27c.18.32.32.57.41.76.1.19.17.34.23.46.06.12.11.24.16.35.17.43.23.78.16,1.05-.07.27-.25.56-.56.86l-.75.76c-.22.21-.36.39-.44.52-.08.13-.07.26.01.38.07.09.15.16.25.19.1.03.22.05.36.07l-.02.19c-.25-.01-.47-.05-.64-.12-.18-.07-.34-.23-.48-.46-.13-.21-.18-.44-.16-.68.03-.24.2-.51.52-.82l.75-.72c.22-.2.4-.4.54-.57.14-.18.23-.36.26-.54.03-.18-.02-.39-.17-.62l-.57-.94.14-.11Z"/>
  <path d="m39.02,168.14c.2.27.32.5.36.69.04.19.06.37.07.53,0,.09.02.17.03.22.01.06.03.1.06.14.04.05.1.07.18.05.08-.02.18-.07.32-.14l.14.19c-.1.06-.21.14-.35.22-.14.09-.31.21-.52.36-.21.15-.49.35-.83.61l-.14-.19c.25-.21.46-.45.63-.73.17-.28.26-.56.27-.86.01-.3-.09-.61-.32-.91-.21-.29-.48-.46-.79-.52-.31-.06-.61.01-.9.22-.25.18-.4.39-.48.64-.07.25-.1.53-.08.83.02.31.04.64.07,1,.03.41.04.79.04,1.14,0,.35-.07.66-.18.94s-.32.53-.61.75c-.35.26-.7.39-1.04.4-.35.01-.67-.07-.98-.25-.31-.18-.58-.43-.81-.74-.21-.29-.35-.54-.41-.76-.06-.22-.1-.41-.11-.58-.01-.18-.04-.3-.09-.36-.04-.06-.1-.07-.18-.05-.08.02-.18.07-.31.14l-.14-.19c.12-.07.26-.17.42-.28.16-.11.36-.26.62-.44.25-.18.57-.41.95-.69l.14.19c-.31.26-.57.55-.78.86-.21.31-.32.63-.34.97-.02.34.1.68.36,1.03.13.18.29.32.49.43.19.11.41.15.64.14.24-.01.49-.12.74-.3.22-.16.38-.36.47-.59.09-.23.13-.49.14-.79,0-.3-.01-.63-.05-1-.03-.37-.05-.73-.05-1.08,0-.34.06-.66.17-.95.12-.29.33-.55.63-.77.32-.24.64-.36.96-.37s.61.07.89.23c.27.16.51.38.71.64"/>
  <path d="m44.32,174.7c.43.48.69,1,.79,1.56.1.56.03,1.11-.2,1.68-.23.56-.64,1.1-1.23,1.61-.57.5-1.16.84-1.77,1.01-.61.17-1.19.18-1.75.02-.56-.16-1.05-.47-1.47-.95-.42-.48-.69-1-.79-1.56-.1-.56-.03-1.12.2-1.68.24-.56.64-1.1,1.22-1.61.57-.5,1.16-.83,1.77-1,.61-.17,1.2-.17,1.75-.02.56.15,1.05.47,1.46.94m-.16.09c-.29-.33-.66-.52-1.1-.56-.44-.04-.93.04-1.45.26-.52.22-1.05.56-1.58,1.03-.54.47-.94.96-1.21,1.46-.27.5-.4.97-.39,1.42,0,.45.15.83.42,1.14.29.33.66.52,1.1.56.44.04.93-.05,1.45-.27.52-.22,1.05-.56,1.57-1.02.54-.48.95-.97,1.21-1.46.26-.5.39-.97.39-1.42,0-.45-.15-.83-.43-1.14"/>
  <path d="m52.92,183.57l-.14.15c-.17-.15-.32-.25-.45-.28-.13-.04-.25-.02-.38.05-.12.07-.27.2-.44.38l-4.15,4.42s-.06-.05-.08-.08c-.03-.03-.06-.05-.08-.08l1.41-7.73-3.68,3.91c-.17.18-.28.33-.34.46-.06.13-.07.26,0,.4.06.13.18.29.36.48l-.14.15c-.08-.09-.19-.21-.33-.35-.14-.14-.28-.27-.4-.39-.12-.11-.25-.23-.38-.35-.13-.12-.24-.21-.33-.28l.14-.15c.18.15.33.24.45.28s.25.02.38-.05.27-.2.44-.38l3.38-3.6c.17-.18.28-.33.33-.45.05-.11.05-.23,0-.34-.06-.11-.17-.25-.33-.41l.14-.15c.08.08.18.19.3.31.12.12.24.24.37.36.11.1.21.2.32.29.1.09.2.17.28.23l-1.17,6.49,2.98-3.17c.17-.18.29-.34.35-.47.06-.13.06-.26,0-.4-.05-.13-.18-.29-.36-.48l.14-.15c.08.09.2.2.34.34.14.14.27.27.4.39.13.12.26.24.39.35.13.11.24.2.32.27"/>
  <path d="m57.17,186.96l-1.99,6.56c-.08.27-.09.47-.04.62.05.15.11.26.19.33l-.12.16c-.1-.09-.22-.2-.38-.33-.15-.12-.31-.25-.46-.37-.21-.16-.4-.32-.59-.45-.18-.14-.33-.25-.46-.33l.12-.16c.28.2.49.29.63.27.14-.02.26-.21.37-.57l1.63-5.14h.21s-4.23,2.52-4.23,2.52c-.25.15-.44.29-.57.42-.13.13-.21.26-.23.38-.02.12,0,.24.09.37.08.12.2.25.36.39l-.12.16c-.14-.13-.29-.26-.45-.39-.16-.13-.31-.25-.45-.36-.13-.1-.25-.19-.34-.26-.1-.07-.19-.13-.28-.18l.12-.16c.13.06.29.08.47.07.19-.01.42-.1.7-.27l5.68-3.38s.04.04.06.05c.02.02.04.03.06.05m-1.69,4.16l-.12.16-2.38-1.87.21-.1,2.3,1.81Z"/>
  <path d="m63.6,191.63l-.11.17c-.2-.12-.36-.19-.48-.22-.12-.03-.24,0-.33.07s-.22.22-.36.43l-2.76,4.21c-.13.2-.22.37-.25.49-.03.12-.01.24.07.33.08.1.22.21.41.33l.62.41c.27.17.5.29.71.34.2.05.4.05.58,0,.18-.06.36-.17.55-.34.18-.17.39-.4.61-.67l.19.13c-.13.17-.29.39-.48.68-.07.11-.17.27-.29.47-.12.21-.24.43-.36.65-.28-.2-.6-.42-.96-.66-.36-.24-.68-.45-.97-.64-.12-.08-.28-.19-.48-.32-.2-.13-.41-.27-.64-.41-.23-.15-.46-.29-.69-.44-.23-.15-.46-.29-.67-.42l.11-.17c.2.11.36.19.48.22.12.03.23,0,.33-.07.1-.08.22-.22.35-.42l2.76-4.21c.14-.21.22-.38.25-.5.03-.12,0-.23-.07-.34-.07-.1-.21-.22-.4-.35l.11-.17c.12.08.27.19.46.32.19.13.39.27.62.42.2.13.4.26.6.38.2.12.37.23.5.3"/>
  <path d="m70.32,195.66l-.1.18c-.2-.11-.37-.17-.49-.19-.12-.02-.23.01-.33.1-.09.08-.2.23-.32.45l-2.47,4.4c-.12.21-.19.38-.22.51-.02.13,0,.24.09.33.08.09.22.2.42.33l-.1.18c-.13-.09-.29-.19-.5-.31-.2-.12-.41-.23-.61-.35-.23-.13-.45-.25-.65-.36-.2-.11-.37-.2-.5-.25l.1-.18c.21.1.37.16.5.18.12.02.23,0,.33-.1.1-.09.2-.24.32-.45l2.47-4.4c.12-.22.19-.39.22-.51.02-.12,0-.23-.09-.33-.08-.1-.22-.2-.42-.32l.1-.18c.12.08.28.17.48.29.2.12.41.24.64.37.21.11.41.23.62.34.21.11.38.2.52.27"/>
  <path d="m74.72,197.77c.31.15.52.29.65.44.12.15.23.29.31.43.05.08.1.14.13.18.04.04.08.07.12.1.06.03.12.02.18-.04.06-.05.13-.14.21-.27l.21.1c-.06.1-.12.22-.2.36-.08.14-.17.33-.29.56-.12.24-.26.54-.45.93l-.21-.1c.12-.3.19-.61.21-.93.02-.32-.04-.62-.17-.89-.13-.27-.37-.49-.71-.65-.33-.15-.64-.18-.94-.09-.31.1-.53.3-.68.62-.13.28-.17.54-.12.79.05.25.16.51.32.77.16.26.34.54.54.85.22.35.42.68.57.99.16.31.25.62.28.92.03.3-.03.62-.19.95-.19.39-.43.67-.73.85-.3.17-.63.25-.98.24-.35-.01-.71-.1-1.06-.27-.32-.15-.56-.31-.72-.48-.15-.16-.28-.32-.38-.46-.09-.15-.18-.24-.25-.28-.06-.03-.12-.02-.18.04-.06.05-.13.14-.21.27l-.21-.1c.07-.12.15-.27.24-.44.09-.17.2-.4.33-.68.14-.28.31-.63.51-1.06l.21.1c-.15.38-.25.75-.28,1.13-.04.37.01.71.16,1.02.14.3.41.55.8.74.2.1.41.15.63.15.22,0,.43-.06.63-.18.2-.12.37-.33.51-.62.12-.25.16-.5.13-.74-.03-.24-.11-.5-.25-.76-.14-.26-.31-.55-.51-.86-.2-.32-.39-.62-.55-.93-.16-.3-.26-.61-.3-.92-.04-.31.03-.64.19-.98.17-.36.39-.62.67-.78.27-.16.57-.23.89-.22.32.01.63.09.93.23"/>
  <path d="m84.09,201.8c-.11.21-.21.42-.3.63-.09.2-.15.36-.19.47-.04.11-.08.23-.12.33-.03.11-.06.2-.08.27l-.22-.08c.1-.39.16-.7.18-.95.01-.25-.05-.45-.18-.6-.13-.15-.37-.3-.7-.42l-.79-.3c-.22-.08-.39-.13-.51-.13-.12,0-.23.04-.31.13-.08.1-.17.26-.25.5l-1.79,4.71c-.09.23-.13.41-.14.54,0,.13.04.23.14.31.1.08.25.16.47.24l.69.26c.4.15.72.21.97.18.25-.03.46-.15.65-.36.18-.21.38-.51.58-.92l.22.08c-.08.16-.18.39-.29.67-.05.12-.11.3-.18.52-.08.23-.15.47-.21.72-.32-.13-.68-.28-1.08-.44-.4-.16-.76-.3-1.08-.42-.14-.05-.32-.12-.54-.2-.22-.08-.46-.17-.71-.26-.25-.09-.51-.19-.77-.28-.26-.1-.51-.19-.75-.27l.07-.19c.22.07.39.11.52.11.12,0,.23-.04.31-.14.08-.1.17-.26.25-.49l1.79-4.71c.09-.23.14-.41.14-.54,0-.12-.04-.23-.14-.31-.1-.08-.25-.17-.46-.26l.07-.19c.23.09.48.19.74.3.26.1.51.2.77.3.25.1.49.19.71.27.22.08.4.15.54.21.29.11.62.23.99.37s.71.26,1,.35m-2.87,2.63l-.07.19-1.74-.66.07-.19,1.74.66Zm.75-1.15c-.16.35-.28.62-.35.81-.07.19-.13.37-.19.52-.06.16-.12.33-.19.53-.07.19-.16.47-.27.85l-.22-.08c.05-.21.1-.42.14-.63.04-.21.02-.39-.05-.56-.07-.17-.24-.3-.52-.41l.07-.19c.21.08.39.1.53.05.14-.04.27-.12.37-.24.1-.11.19-.24.26-.37.07-.14.14-.26.2-.36l.22.08Z"/>
  <path d="m89.52,203.5c1.17.33,1.95.86,2.36,1.61.4.74.45,1.66.15,2.75-.2.71-.51,1.29-.94,1.75-.43.45-.94.75-1.56.9-.61.14-1.29.11-2.04-.1-.1-.03-.23-.07-.39-.12-.16-.05-.33-.1-.5-.16-.17-.05-.33-.1-.47-.14-.23-.07-.45-.12-.68-.18-.22-.06-.4-.1-.54-.13l.06-.2c.22.05.4.07.53.06.12,0,.22-.06.3-.17.07-.11.14-.28.21-.51l1.36-4.86c.07-.24.1-.42.09-.55,0-.12-.06-.22-.16-.3-.1-.08-.26-.15-.48-.21l.06-.2c.14.04.31.1.53.17.22.07.44.14.65.19.23.06.49.12.78.2s.52.14.71.19m-.29.11c-.3-.08-.51-.08-.63,0-.12.09-.23.3-.33.64l-1.37,4.89c-.1.34-.11.58-.05.71.06.14.25.25.55.33.71.2,1.3.23,1.76.08.46-.15.84-.45,1.14-.9.3-.45.54-1.03.74-1.74.2-.73.29-1.36.25-1.89-.04-.53-.22-.97-.55-1.32-.33-.35-.83-.62-1.51-.81"/>
  <path d="m102.68,206.33c.26.03.46.09.62.16.16.08.29.17.39.27.08.08.14.16.18.25.04.09.07.17.09.26.02.08.02.16.01.24-.02.17-.1.29-.23.37-.13.08-.26.11-.41.09-.13-.02-.25-.08-.35-.18-.1-.1-.13-.23-.11-.39.02-.15.08-.27.2-.36.11-.09.25-.13.41-.13-.02-.09-.09-.18-.22-.26s-.3-.13-.51-.16c-.34-.04-.64.03-.88.2-.24.18-.39.46-.44.85-.02.19-.01.38.03.59s.16.41.34.63c.12,0,.24,0,.36,0,.12,0,.21.01.27.02.12.01.22.05.29.1.07.05.1.11.09.19,0,.06-.04.1-.09.13-.06.03-.12.04-.21.02-.13-.02-.26-.06-.39-.14-.13-.07-.24-.13-.32-.18-.4.07-.74.21-1.02.44-.27.23-.44.58-.5,1.05-.06.46.01.87.22,1.23s.5.64.88.86c.39.22.83.36,1.33.43.36.04.7.05,1.03,0,.33-.04.63-.13.89-.26.26-.13.48-.3.65-.51.17-.21.27-.46.31-.74.02-.13,0-.3-.02-.5-.03-.21-.12-.41-.26-.63-.14-.21-.38-.4-.72-.55l.13-.09c.47.21.79.49.96.84.17.35.23.73.18,1.13-.05.4-.22.77-.51,1.12-.29.34-.68.6-1.16.77-.49.18-1.06.22-1.71.14-.44-.05-.85-.16-1.22-.33-.38-.16-.71-.37-.98-.63-.28-.26-.48-.55-.62-.88-.14-.33-.18-.69-.13-1.08.05-.36.15-.67.33-.91.17-.24.38-.43.6-.57.23-.14.45-.25.67-.31.22-.07.4-.11.53-.12-.21-.13-.38-.27-.51-.43-.13-.16-.23-.32-.29-.5-.06-.18-.07-.34-.06-.5.02-.16.08-.31.17-.46.09-.14.22-.26.37-.37.16-.1.35-.18.57-.22.22-.04.47-.04.75,0m3.7.26c.42.05.75.22,1,.49.25.27.35.63.3,1.06-.03.23-.1.43-.2.6-.11.17-.24.31-.4.42-.16.12-.34.21-.53.27-.16.06-.38.11-.64.17-.26.06-.54.11-.84.16-.3.05-.58.1-.85.15-.27.05-.49.1-.66.14-.26.06-.49.15-.67.27-.19.12-.3.28-.32.5-.02.17,0,.33.1.46.09.13.2.24.33.32.14.08.27.13.4.14.06,0,.14,0,.23,0,.09,0,.18-.02.26-.05.08-.02.13-.06.15-.1-.11-.03-.21-.1-.3-.19-.1-.09-.13-.22-.11-.39.02-.16.09-.28.21-.36.12-.08.26-.11.41-.09.16.02.29.09.37.2.09.11.12.25.1.41-.02.19-.11.34-.25.46-.14.12-.31.19-.5.23-.19.04-.38.05-.56.03-.19-.02-.38-.09-.56-.19-.18-.1-.33-.25-.44-.44-.11-.19-.14-.42-.11-.7.03-.24.11-.44.24-.61.13-.17.3-.31.53-.42.23-.12.5-.21.81-.27.21-.04.46-.09.76-.13.3-.04.61-.1.92-.15.32-.06.61-.13.87-.21.35-.11.6-.24.74-.39.14-.15.22-.3.24-.47.02-.19,0-.38-.1-.54-.09-.16-.22-.3-.38-.42-.17-.11-.35-.18-.56-.21-.08,0-.15-.01-.2,0-.06,0-.09.03-.11.06.09.06.15.14.19.23.04.09.05.18.04.27-.02.14-.09.25-.21.33-.12.08-.26.11-.42.09-.13-.02-.24-.07-.35-.17-.1-.1-.15-.23-.12-.4.02-.17.1-.31.23-.39.13-.09.28-.14.46-.16.18-.02.35-.02.51,0"/>
  <path d="m117.99,206.98c.45,0,.82.05,1.11.18.29.13.55.27.78.45.14.1.24.11.31.03.07-.08.12-.26.14-.56h.23c0,.25-.01.55-.01.91,0,.36,0,.83.02,1.42h-.23c-.05-.29-.1-.52-.15-.69-.04-.17-.1-.32-.16-.44-.06-.12-.14-.24-.24-.36-.21-.27-.48-.47-.8-.59s-.66-.17-1.01-.17c-.33,0-.63.1-.89.27-.26.17-.49.42-.68.73-.19.32-.33.69-.42,1.14-.1.44-.14.94-.13,1.49.01.57.08,1.07.2,1.5.12.43.29.8.51,1.09.21.29.46.51.74.66.29.15.59.22.91.21.31,0,.62-.07.95-.2s.59-.33.77-.61c.14-.2.24-.41.3-.65.05-.23.1-.55.14-.97h.23c.01.61.03,1.11.04,1.48.01.38.03.69.05.95h-.23c-.03-.29-.08-.47-.15-.54-.07-.07-.17-.06-.32.04-.25.18-.51.34-.79.48-.28.14-.64.21-1.08.22-.64.01-1.21-.12-1.7-.4-.49-.28-.87-.69-1.15-1.24-.28-.54-.43-1.2-.44-1.97-.02-.76.11-1.43.38-2,.26-.57.64-1.03,1.12-1.35.48-.33,1.03-.5,1.66-.51"/>
  <path d="m129.63,206.2l.02.2c-.23.03-.4.08-.51.16-.11.07-.18.18-.21.32-.02.14-.02.33,0,.58l.34,3.04c.05.47.07.89.05,1.24-.02.36-.1.67-.22.95-.14.3-.36.56-.66.76-.3.21-.66.33-1.08.38-.32.04-.64.03-.94-.01-.3-.04-.57-.16-.82-.34-.22-.17-.39-.35-.53-.54-.13-.2-.24-.44-.31-.74-.07-.3-.14-.68-.19-1.13l-.36-3.17c-.03-.25-.07-.43-.12-.54-.05-.11-.14-.18-.26-.21-.12-.03-.3-.04-.53-.02l-.02-.2c.14,0,.33-.02.56-.04.23-.02.47-.04.74-.07.24-.03.47-.06.7-.09.23-.03.42-.06.58-.09l.02.2c-.23.03-.4.08-.51.13-.11.06-.18.15-.21.27-.03.12-.03.31,0,.56l.38,3.34c.04.34.09.67.16.97.07.3.17.57.3.79.13.22.31.38.54.49.23.11.52.14.88.1.51-.06.9-.21,1.15-.47.25-.26.41-.59.48-1,.07-.41.07-.86.02-1.36l-.35-3.15c-.03-.25-.08-.44-.15-.56-.07-.13-.18-.22-.32-.26-.14-.05-.33-.06-.56-.04l-.02-.2c.12,0,.28-.02.48-.03.2-.01.38-.03.55-.05.18-.02.35-.04.52-.07s.31-.05.42-.07"/>
  <path d="m134.22,205.24c.33-.07.59-.08.78-.04.19.04.36.1.51.16.09.03.16.05.21.07.05.01.1.01.15,0,.07-.01.11-.06.12-.14.01-.08.02-.19,0-.34l.23-.04c.01.11.03.25.06.41.02.16.05.36.1.62.05.26.11.59.2,1.01l-.23.05c-.08-.32-.21-.61-.39-.88-.18-.27-.4-.47-.67-.61-.27-.14-.58-.17-.96-.1-.35.07-.62.23-.81.49-.19.26-.25.56-.18.91.06.3.18.54.38.71.19.17.43.32.72.43.29.11.6.23.94.36.39.14.74.29,1.05.45.31.16.57.34.77.57.21.22.35.51.42.87.09.43.06.8-.08,1.11-.14.32-.35.58-.64.78s-.63.34-1.01.42c-.35.07-.64.09-.86.05s-.41-.09-.58-.14c-.17-.06-.29-.09-.37-.07-.07.01-.11.06-.12.14-.02.08-.02.19-.01.34l-.23.05c-.01-.14-.04-.31-.07-.5-.03-.19-.08-.44-.14-.74-.06-.31-.13-.69-.22-1.16l.23-.05c.11.39.26.75.45,1.07.19.32.44.56.73.72.3.16.66.19,1.08.11.22-.04.42-.13.6-.26s.31-.3.4-.52c.09-.22.1-.49.04-.8-.05-.27-.17-.5-.34-.67-.17-.18-.39-.33-.66-.46-.27-.13-.58-.26-.93-.38-.35-.13-.68-.27-.99-.41-.31-.14-.58-.33-.79-.56-.21-.23-.36-.53-.43-.9-.08-.39-.05-.73.07-1.02.12-.29.32-.53.58-.71.26-.18.55-.3.88-.37"/>
  <path d="m144.63,202.73c.04.26.09.5.15.73s.1.41.14.54c.04.16.09.3.13.44.05.14.09.25.12.36l-.22.06c-.18-.44-.34-.79-.49-1.03-.15-.24-.35-.39-.57-.45-.23-.06-.55-.03-.96.08l-.53.15,1.58,5.56c.07.26.15.45.24.57s.21.18.36.18c.16,0,.37-.02.65-.09l.06.19c-.17.04-.39.09-.65.16-.26.07-.53.15-.79.22-.29.08-.57.16-.82.24-.26.08-.46.14-.61.2l-.06-.2c.27-.09.47-.18.6-.27.13-.09.2-.2.21-.35.01-.14-.02-.35-.09-.61l-1.59-5.56-.53.15c-.4.12-.69.26-.85.43-.17.17-.25.4-.25.69,0,.29.04.66.12,1.13l-.23.06c-.02-.11-.04-.23-.08-.37-.04-.14-.07-.29-.12-.44-.04-.12-.09-.3-.17-.53-.07-.23-.16-.46-.26-.7.27-.07.58-.15.9-.24.32-.08.65-.17.98-.27.33-.09.62-.18.89-.25.27-.08.56-.16.88-.25.32-.09.65-.19.97-.29.32-.1.62-.19.88-.27"/>
  <path d="m150.1,200.61c.6-.23,1.18-.3,1.74-.2.56.1,1.06.35,1.51.76.45.41.81.98,1.09,1.71.27.71.39,1.38.34,2.01-.05.63-.24,1.18-.58,1.65-.34.47-.8.82-1.39,1.05-.6.23-1.18.3-1.74.2-.56-.1-1.06-.35-1.51-.77-.45-.41-.81-.98-1.09-1.7-.27-.71-.38-1.38-.33-2.01.05-.63.25-1.18.59-1.66.34-.47.8-.82,1.39-1.05m.03.19c-.41.16-.71.44-.91.84-.19.4-.28.89-.25,1.45.03.56.17,1.18.42,1.83.26.67.58,1.22.96,1.64.38.42.78.71,1.2.85.42.14.83.14,1.21,0,.41-.16.71-.44.9-.84.19-.4.28-.89.25-1.45-.03-.57-.17-1.18-.42-1.83-.26-.67-.58-1.22-.96-1.64-.38-.42-.78-.7-1.2-.85-.42-.15-.82-.14-1.22,0"/>
  <path d="m162.75,194.85l.09.18c-.2.11-.35.21-.43.31-.08.09-.12.2-.1.33.02.12.08.3.2.52l2.3,4.48c.11.22.21.37.31.46.09.09.2.13.32.11.12-.02.29-.07.5-.17l.09.18c-.15.06-.32.14-.53.25-.21.1-.42.21-.63.32-.24.12-.45.24-.66.34-.2.11-.37.2-.49.28l-.09-.18c.2-.12.34-.22.43-.31.09-.09.12-.2.1-.33-.02-.13-.08-.3-.2-.52l-2.56-4.97h.05s.84,7.1.84,7.1l-.15.07-5.29-4.69,2.45,4.77c.11.22.22.38.32.48.1.1.23.15.37.14.14,0,.34-.07.58-.18l.09.18c-.12.04-.26.11-.44.2-.18.09-.34.17-.5.25-.15.08-.3.16-.45.24-.15.08-.28.15-.37.22l-.09-.18c.2-.12.34-.23.42-.33.08-.11.1-.23.08-.37-.03-.14-.1-.32-.21-.54l-2.26-4.39c-.11-.22-.22-.38-.31-.46-.09-.09-.2-.12-.32-.11-.12.01-.29.07-.5.17l-.09-.18c.11-.05.24-.11.39-.18.16-.07.31-.15.46-.23.13-.07.27-.14.41-.22.14-.08.26-.15.35-.2l4.83,4.35-.12.15-.77-6.5c.07-.04.14-.07.21-.11.07-.04.14-.07.21-.11.21-.11.42-.22.62-.33.2-.11.38-.21.51-.29"/>
  <path d="m167.21,192.05l.11.17c-.19.13-.33.24-.4.34-.08.1-.1.21-.07.33.03.12.11.29.24.5l2.67,4.27c.13.21.24.35.34.43.1.08.21.11.33.08.12-.03.28-.1.49-.21l.11.17c-.14.07-.31.17-.51.29-.2.12-.4.24-.6.37-.22.14-.43.27-.63.4-.19.12-.35.23-.46.32l-.11-.17c.19-.13.32-.25.4-.35.08-.1.1-.21.07-.33-.03-.12-.11-.29-.24-.5l-2.67-4.27c-.13-.21-.25-.36-.35-.44-.1-.08-.21-.11-.33-.08-.12.02-.29.1-.48.21l-.11-.17c.12-.07.29-.16.49-.28.2-.12.41-.24.63-.38.2-.13.4-.25.59-.38.19-.13.36-.24.48-.33"/>
  <path d="m171.18,189.2c.27-.2.51-.32.69-.36.19-.04.37-.06.53-.06.09,0,.17-.02.22-.03.05-.01.1-.03.14-.06.06-.04.07-.1.05-.18-.02-.08-.06-.18-.13-.32l.19-.14c.06.1.13.21.22.35.08.13.2.31.35.52.15.21.35.5.6.84l-.19.14c-.21-.25-.45-.46-.72-.63-.27-.17-.56-.26-.86-.28-.3-.02-.6.08-.91.31-.29.21-.47.47-.53.78-.06.31,0,.61.22.9.18.25.39.41.64.49.25.08.53.1.83.09.31-.02.64-.04,1-.06.41-.03.79-.04,1.14-.03.35.01.66.08.94.19.28.12.53.32.74.62.25.35.38.7.39,1.05,0,.35-.08.67-.26.98-.18.3-.43.57-.75.8-.29.21-.55.34-.76.4-.22.06-.41.09-.59.11-.18.01-.3.04-.36.09-.05.04-.07.1-.05.18.02.08.06.18.13.32l-.19.14c-.07-.12-.17-.26-.27-.42-.11-.16-.26-.36-.43-.62-.18-.26-.41-.57-.69-.96l.19-.14c.26.31.54.58.85.79.31.21.63.33.97.35.34.02.68-.1,1.03-.35.18-.13.33-.29.43-.48.11-.19.16-.4.14-.64-.01-.24-.11-.49-.3-.74-.16-.23-.36-.38-.59-.47-.23-.09-.49-.14-.79-.14-.3,0-.63,0-1,.04-.37.03-.73.04-1.08.04-.35,0-.66-.06-.95-.18-.29-.12-.55-.33-.77-.64-.23-.32-.35-.64-.36-.96,0-.32.07-.61.23-.88.16-.27.38-.51.65-.7"/>
  <path d="m179.22,182.92c.13.2.27.39.4.56.14.18.24.31.32.4.08.09.16.18.24.26.08.08.14.15.2.2l-.18.15c-.29-.28-.54-.48-.75-.61-.21-.13-.41-.17-.61-.13-.2.04-.44.18-.71.41l-.64.55c-.18.15-.3.28-.36.38-.07.1-.08.21-.03.33s.15.27.31.46l3.27,3.84c.16.19.29.31.4.38.11.07.22.08.34.03.11-.05.26-.15.44-.3l.56-.48c.32-.28.53-.53.63-.76.09-.23.09-.48,0-.74-.09-.26-.27-.58-.52-.95l.18-.15c.1.15.25.35.45.58.08.1.21.23.37.41.16.18.34.36.53.53-.27.21-.57.46-.91.74-.33.28-.63.53-.89.75-.11.1-.26.22-.44.37-.18.15-.37.32-.57.49-.2.18-.41.36-.62.54-.21.18-.41.36-.59.53l-.13-.15c.17-.16.28-.29.35-.4.06-.11.07-.22.02-.34-.05-.12-.15-.27-.31-.46l-3.27-3.84c-.16-.19-.3-.32-.41-.38-.11-.06-.22-.07-.34-.03-.12.04-.27.14-.45.28l-.13-.15c.2-.16.4-.32.61-.5.21-.18.43-.35.63-.53.21-.17.4-.34.58-.49.18-.15.32-.27.44-.37.24-.2.51-.43.81-.69.3-.26.56-.5.79-.71m.92,3.78l.13.15-1.42,1.21-.13-.15,1.42-1.21Zm-.65-1.21c.23.31.41.54.55.7.14.15.26.29.37.42.11.13.23.27.37.42.14.15.34.36.61.64l-.18.15c-.16-.15-.32-.29-.49-.42-.16-.13-.33-.21-.51-.23s-.38.07-.61.26l-.13-.15c.17-.14.27-.29.3-.44.03-.15.02-.29-.03-.43-.05-.14-.12-.28-.2-.41-.08-.13-.16-.25-.22-.35l.18-.15Z"/>
  <path d="m183.33,178.98c.85-.87,1.7-1.3,2.54-1.29.85,0,1.67.4,2.48,1.2.53.52.89,1.07,1.08,1.66.19.59.21,1.19.04,1.8-.17.61-.52,1.19-1.07,1.74-.07.07-.17.17-.29.28-.12.12-.25.24-.38.36-.13.13-.24.24-.35.35-.17.17-.33.34-.49.5-.16.17-.28.31-.37.42l-.15-.14c.15-.17.25-.32.31-.43.05-.11.05-.23,0-.34-.06-.11-.18-.26-.35-.43l-3.6-3.53c-.18-.18-.32-.29-.44-.34-.11-.05-.23-.05-.34,0-.11.05-.25.16-.42.32l-.15-.14c.11-.1.24-.22.41-.38.17-.16.33-.32.48-.48.16-.17.34-.37.55-.59.2-.22.37-.39.51-.53m-.05.31c-.22.22-.32.41-.3.56.02.15.15.35.4.59l3.63,3.56c.25.25.45.38.6.39.15.01.34-.1.55-.32.52-.53.82-1.03.92-1.51.09-.48.01-.95-.24-1.43-.25-.48-.64-.97-1.17-1.49-.54-.53-1.05-.91-1.53-1.13-.48-.22-.95-.27-1.42-.15-.46.12-.94.43-1.44.93"/>
  <path d="m192.43,168.09c.26-.35.52-.6.79-.74.27-.14.54-.25.82-.34.11-.03.17-.07.2-.1.08-.1-.04-.29-.35-.57l.14-.19c.19.16.43.35.72.57.29.22.67.5,1.14.85l-.14.19c-.26-.13-.51-.25-.77-.35-.25-.1-.5-.15-.75-.13-.32,0-.63.1-.93.27-.3.17-.55.4-.75.67-.2.27-.32.57-.34.89-.03.32.02.65.16.99.14.34.35.69.64,1.03.29.34.65.68,1.1,1,.98.72,1.82,1.09,2.51,1.11.69.02,1.28-.3,1.77-.97.14-.2.24-.39.29-.58.05-.19.08-.34.08-.46,0-.16-.01-.27-.06-.34-.04-.07-.11-.15-.22-.23l-.79-.58c-.22-.17-.41-.27-.55-.3-.14-.04-.27,0-.4.08-.12.09-.27.25-.45.47l-.16-.12c.08-.09.17-.21.26-.33s.2-.26.31-.41c.11-.14.21-.28.3-.4.13-.18.25-.34.35-.49.1-.15.18-.27.25-.38l.16.12c-.08.12-.13.23-.14.31-.01.08.02.17.11.26.08.09.23.21.43.36l1.62,1.19-.12.16c-.1-.06-.21-.12-.35-.16-.13-.05-.23-.03-.28.04-.02.03-.04.07-.05.12,0,.04-.01.13-.01.26,0,.28-.03.55-.1.81-.07.26-.2.52-.4.79-.41.56-.88.96-1.41,1.19-.53.23-1.09.29-1.68.18-.59-.11-1.19-.39-1.8-.83-.64-.47-1.1-.99-1.4-1.56-.29-.57-.43-1.15-.39-1.73.04-.58.24-1.13.62-1.64"/>
  <path d="m197.08,161.4l.17.11c-.12.2-.19.36-.21.48-.03.12,0,.23.08.33.08.1.23.21.44.35l4.27,2.67c.21.13.37.21.5.24.12.03.24,0,.33-.07.1-.08.21-.21.35-.4l.17.11c-.09.12-.2.29-.33.48-.13.2-.25.39-.38.6-.14.22-.27.43-.39.63-.12.2-.21.36-.28.49l-.17-.11c.11-.2.18-.36.21-.49.03-.12,0-.23-.08-.33-.08-.1-.23-.21-.43-.34l-4.27-2.68c-.21-.13-.38-.21-.5-.24-.12-.03-.23,0-.33.07-.1.08-.21.21-.34.4l-.17-.11c.08-.12.19-.27.31-.46.13-.19.26-.4.4-.62.13-.2.25-.4.37-.6.12-.2.22-.37.29-.51"/>
  <path d="m200.87,154.59c.21.14.43.28.63.4s.37.21.48.27c.14.08.28.15.41.21.13.06.24.11.34.16l-.11.21c-.44-.18-.8-.3-1.08-.36-.28-.06-.52-.02-.73.1-.2.12-.41.37-.61.75l-.3.57c-.11.2-.18.37-.2.49-.02.12,0,.23.09.32.08.09.24.2.46.32l4.44,2.38c.22.11.39.18.52.19.13.01.25-.04.36-.15.11-.11.23-.29.38-.54l.18.1c-.09.15-.21.34-.34.58-.13.24-.26.48-.39.72-.12.23-.24.45-.35.66-.11.2-.19.37-.24.51l-.18-.1c.1-.21.15-.38.17-.5.02-.12-.01-.23-.1-.33-.09-.09-.24-.2-.46-.31l-4.44-2.38c-.22-.12-.39-.19-.52-.21-.12-.02-.23.01-.33.09-.09.08-.2.23-.31.43l-.18-.1c.12-.22.25-.45.39-.69.13-.24.27-.48.4-.72.13-.24.25-.46.36-.67.11-.21.2-.38.27-.51.15-.28.31-.59.5-.94.18-.35.34-.67.48-.95m1.32,2.27c.33.21.58.36.76.45.18.09.35.18.49.26.15.08.32.16.5.26.18.09.45.21.8.37l-.11.21c-.2-.08-.4-.15-.61-.21-.2-.06-.39-.07-.56-.02-.18.05-.33.2-.47.47l-.18-.1c.11-.2.15-.37.12-.52-.02-.15-.09-.28-.19-.4-.1-.11-.21-.22-.34-.31-.12-.09-.24-.17-.33-.25l.11-.21Zm1.09.8l.18.1-.96,1.79-.18-.1.96-1.79Z"/>
  <path d="m204.18,147.21c.23.13.45.24.66.35.22.1.38.18.5.23.15.07.29.12.42.17.13.05.25.1.35.13l-.09.22c-.45-.15-.82-.24-1.11-.27-.29-.03-.52.02-.72.16-.19.14-.37.4-.54.79l-.22.5,5.31,2.3c.25.11.44.16.59.17.14,0,.27-.05.37-.17.1-.12.22-.3.34-.56l.19.08c-.08.16-.18.36-.29.61-.11.25-.22.5-.33.75-.12.28-.23.54-.34.79-.1.25-.18.45-.23.6l-.19-.08c.1-.27.16-.48.18-.63.01-.16-.03-.29-.13-.39-.1-.1-.28-.2-.53-.31l-5.31-2.3-.22.5c-.17.39-.24.7-.21.94.03.24.15.45.38.63.22.18.54.39.95.62l-.09.21c-.09-.06-.21-.11-.34-.17-.13-.06-.27-.12-.42-.19-.12-.05-.29-.12-.51-.21-.23-.09-.46-.17-.71-.24.12-.26.25-.54.39-.85.14-.3.28-.61.41-.92.13-.31.26-.59.37-.85.11-.26.23-.54.36-.84.13-.31.26-.62.39-.93.13-.31.25-.6.35-.86"/>
  <path d="m205.67,142.7c.11-.32.23-.55.36-.69.13-.14.26-.26.4-.36.07-.06.13-.11.16-.15.04-.04.07-.08.08-.13.02-.06,0-.12-.06-.18-.06-.05-.16-.11-.29-.18l.07-.22c.11.04.24.1.38.15.15.06.34.14.59.22s.57.2.98.33l-.07.22c-.31-.08-.63-.12-.95-.1-.32.02-.61.11-.86.27-.25.16-.44.42-.56.78-.12.34-.11.66.02.95.13.29.36.49.7.6.29.1.56.11.8.03.25-.08.49-.22.73-.41.24-.19.5-.41.78-.63.32-.26.62-.49.91-.68.29-.19.58-.32.88-.39.29-.07.62-.04.96.07.41.14.72.35.93.62.21.28.33.59.36.95.03.35-.02.72-.14,1.09-.12.34-.25.6-.39.77-.14.17-.28.32-.41.43-.14.11-.22.2-.24.28-.02.06,0,.12.06.17.06.05.16.11.29.18l-.07.22c-.13-.06-.29-.12-.47-.18-.18-.07-.42-.15-.71-.25-.3-.1-.67-.23-1.12-.38l.08-.22c.39.1.78.15,1.15.15.37,0,.7-.1.99-.28.29-.18.5-.47.64-.89.07-.21.1-.43.07-.64-.02-.22-.11-.42-.26-.61-.15-.18-.37-.33-.67-.43-.26-.09-.51-.1-.75-.04-.24.06-.48.17-.73.34-.25.17-.51.37-.79.61-.29.24-.57.46-.85.65-.28.2-.58.33-.88.4-.31.07-.64.05-1-.08-.38-.13-.66-.32-.85-.57-.19-.25-.3-.54-.32-.86-.03-.32.01-.63.12-.95"/>
</svg>